<svg width="409.54" height="137.724" viewBox="0 0 409.54 137.724" xmlns="http://www.w3.org/2000/svg" xmlns:usvg="https://github.com/RazrFalcon/usvg" usvg:version="0.8.0">
    <defs/>
    <path fill="#706f6f" d="M 16.563 98.469 L 27.607 35.867 C 41.857 35.867 46.91 35.789 62.647 35.789 C 72.471 35.789 79.041 37.431 82.388 40.7 C 85.751 43.97 86.705 49.711 85.25 57.923 L 78.117 98.469 L 67.026 98.469 L 73.831 59.864 C 74.957 53.419 74.582 49.164 72.642 47.131 C 70.687 45.081 66.401 44.112 59.784 44.065 L 37.117 43.956 L 33.926 62.524 L 27.575 98.47 L 16.563 98.47 Z"/>
    <path fill="#706f6f" d="M 206.62 35.814 C 210.264 35.82 213.168 37.089 215.335 39.62 C 217.499 42.152 218.265 45.175 217.63 48.687 L 210.96 85.575 C 210.324 89.09 208.466 92.109 205.388 94.631 C 202.308 97.155 198.946 98.415 195.302 98.409 L 159.299 98.357 L 154.899 122.213 L 142.899 122.196 L 158.617 35.745 L 206.62 35.814 Z M 196.433 88.832 C 197.946 87.593 198.866 86.072 199.192 84.272 L 205.397 49.954 C 205.707 48.241 205.333 46.74 204.277 45.453 C 203.22 44.165 201.759 43.521 199.892 43.518 L 169.223 43.473 L 160.694 90.644 L 191.363 90.689 C 193.23 90.691 194.919 90.073 196.433 88.832 Z"/>
    <path fill="#706f6f" d="M 222.642 98.469 L 237.925 11.762 L 248.937 11.762 L 233.653 98.469 Z"/>
    <path fill="#706f6f" d="M 273.316 98.469 C 281.91 98.469 308.407 98.469 308.407 98.469 L 319.45 35.762 L 308.422 35.762 L 298.875 90.374 C 298.875 90.374 282.817 90.374 276.201 90.374 C 261.231 90.374 260.172 85.6 262.136 74.422 L 268.95 35.763 L 257.847 35.763 L 250.701 76.369 C 248.405 89.466 250.036 98.469 273.316 98.469"/>
    <path fill="#706f6f" d="M 355.75 90.028 C 364.607 89.982 370.188 89.274 372.525 87.922 C 374.97 86.476 376.415 84.478 377.138 80.388 C 377.829 76.436 377.399 73.792 375.846 72.453 C 374.293 71.131 369.942 70.316 362.854 70.009 C 360.209 69.885 356.642 69.762 352.152 69.655 C 342.297 69.44 336.546 68.871 334.839 67.979 C 332.271 66.719 330.595 64.981 329.78 62.797 C 328.98 60.583 328.95 57.431 329.672 53.31 C 330.856 46.575 333.731 42.009 338.313 39.641 C 342.879 37.258 352.197 36.059 366.313 36.059 C 375.323 36.059 383.595 36.151 392.606 36.151 L 391.191 44.208 L 361.208 44.208 L 361.223 44.116 L 361.054 44.116 C 352.95 44.116 347.661 44.716 345.232 45.961 C 342.772 47.176 341.265 49.405 340.558 53.311 C 340.142 55.694 340.066 57.386 340.296 58.339 C 340.558 59.307 341.172 60.046 342.157 60.537 C 344.186 61.491 348.922 62.044 356.41 62.198 C 358.316 62.244 359.747 62.29 360.777 62.322 C 366.897 62.522 371.663 62.767 375.107 63.121 C 378.536 63.429 380.965 63.875 382.334 64.459 C 385.378 65.704 387.377 67.473 388.361 69.763 C 389.314 72.07 389.422 75.422 388.638 79.819 C 387.854 84.278 386.593 87.661 384.825 89.983 C 383.056 92.305 380.289 94.319 376.476 96.102 C 374.739 96.948 372.063 97.563 368.388 97.916 C 364.76 98.286 359.731 98.47 353.351 98.47 C 350.537 98.47 347.938 98.409 345.54 98.286 L 321.399 98.286 L 322.891 89.829 L 355.75 90.028 Z"/>
    <path fill="#b3c7e8" d="M 123.756 61.427 L 112.083 61.427 L 110.025 73.1 L 121.698 73.1 Z"/>
    <path fill="#b3c7e8" d="M 138.619 61.427 L 126.946 61.427 L 124.887 73.1 L 136.56 73.1 Z"/>
    <path fill="#b3c7e8" d="M 121.2 76.235 L 109.527 76.235 L 107.469 87.908 L 119.142 87.908 Z"/>
    <path fill="#b3c7e8" d="M 109.004 61.427 L 97.331 61.427 L 95.273 73.1 L 106.946 73.1 Z"/>
    <path fill="#b3c7e8" d="M 126.584 46.482 L 114.911 46.482 L 112.853 58.155 L 124.526 58.155 Z"/>
</svg>
